<svg width="29" height="29" viewBox="0 0 29 29" fill="none" xmlns="http://www.w3.org/2000/svg">
<path d="M7.25033 8.45866C7.25033 7.26373 7.60466 6.09564 8.26853 5.10209C8.9324 4.10854 9.87598 3.33417 10.9799 2.87689C12.0839 2.41961 13.2987 2.29996 14.4707 2.53308C15.6426 2.7662 16.7192 3.34162 17.5641 4.18656C18.409 5.0315 18.9845 6.10802 19.2176 7.27999C19.4507 8.45196 19.331 9.66674 18.8738 10.7707C18.4165 11.8747 17.6421 12.8183 16.6486 13.4821C15.655 14.146 14.4869 14.5003 13.292 14.5003C11.6896 14.5003 10.1529 13.8638 9.01989 12.7308C7.88686 11.5977 7.25033 10.061 7.25033 8.45866ZM13.292 23.6957C13.2947 23.0558 13.5511 22.4431 14.0049 21.992L18.8382 17.1587C18.2108 16.9961 17.5651 16.9149 16.917 16.917H9.66699C7.74417 16.917 5.90011 17.6808 4.54047 19.0405C3.18083 20.4001 2.41699 22.2442 2.41699 24.167C2.41699 24.8079 2.6716 25.4226 3.12482 25.8758C3.57803 26.329 4.19272 26.5837 4.83366 26.5837H12.0837C12.4041 26.5837 12.7115 26.4564 12.9381 26.2297C13.1647 26.0031 13.292 25.6958 13.292 25.3753V23.6957Z" fill="#FCE220"/>
<path d="M24.5412 14.8503L26.2329 16.542C26.4543 16.7678 26.5783 17.0715 26.5783 17.3878C26.5783 17.7041 26.4543 18.0078 26.2329 18.2336L18.2458 26.2328C18.0143 26.4536 17.7078 26.5788 17.3879 26.5832H15.7083C15.3879 26.5832 15.0805 26.4559 14.8539 26.2293C14.6273 26.0027 14.5 25.6953 14.5 25.3749V23.6953C14.5045 23.3754 14.6296 23.0689 14.8504 22.8374L22.8496 14.8503C23.0755 14.6289 23.3791 14.5049 23.6954 14.5049C24.0117 14.5049 24.3154 14.6289 24.5412 14.8503Z" fill="#FCE220"/>
</svg>
