<svg width="60" height="60" viewBox="0 0 60 60" fill="none" xmlns="http://www.w3.org/2000/svg">
<path d="M22.8678 34.747C22.3757 35.239 22.3757 36.0368 22.8678 36.5289C23.3598 37.0209 24.1576 37.0209 24.6497 36.5289L22.8678 34.747ZM30.5894 30.5892C31.0814 30.0972 31.0814 29.2993 30.5894 28.8073C30.0973 28.3152 29.2995 28.3152 28.8075 28.8073L30.5894 30.5892ZM28.8075 28.8073C28.3154 29.2993 28.3154 30.0972 28.8075 30.5892C29.2995 31.0812 30.0973 31.0812 30.5894 30.5892L28.8075 28.8073ZM36.5291 24.6495C37.0211 24.1575 37.0211 23.3596 36.5291 22.8676C36.037 22.3755 35.2392 22.3755 34.7471 22.8676L36.5291 24.6495ZM30.5894 28.8073C30.0973 28.3152 29.2995 28.3152 28.8075 28.8073C28.3154 29.2993 28.3154 30.0972 28.8075 30.5892L30.5894 28.8073ZM34.7471 36.5289C35.2392 37.0209 36.037 37.0209 36.5291 36.5289C37.0211 36.0368 37.0211 35.239 36.5291 34.747L34.7471 36.5289ZM28.8075 30.5892C29.2995 31.0812 30.0973 31.0812 30.5894 30.5892C31.0814 30.0972 31.0814 29.2993 30.5894 28.8073L28.8075 30.5892ZM24.6497 22.8676C24.1576 22.3755 23.3598 22.3755 22.8678 22.8676C22.3757 23.3596 22.3757 24.1574 22.8678 24.6495L24.6497 22.8676ZM24.6497 36.5289L30.5894 30.5892L28.8075 28.8073L22.8678 34.747L24.6497 36.5289ZM30.5894 30.5892L36.5291 24.6495L34.7471 22.8676L28.8075 28.8073L30.5894 30.5892ZM29.6984 29.6982L28.8075 30.5892L28.8086 30.5904C28.8088 30.5905 28.8101 30.5918 28.8101 30.5918C28.8099 30.5917 28.8102 30.5919 28.8101 30.5918C28.8101 30.5918 28.8114 30.5931 28.8115 30.5932C28.8114 30.5931 28.8116 30.5934 28.8115 30.5932C28.8116 30.5934 28.8126 30.5943 28.8127 30.5944C28.8128 30.5945 28.8139 30.5956 28.814 30.5957C28.8141 30.5958 28.8151 30.5968 28.8152 30.5969C28.8153 30.597 28.8164 30.5981 28.8166 30.5983C28.8167 30.5985 28.8178 30.5995 28.818 30.5998C28.8181 30.5999 28.8195 30.6012 28.8196 30.6013C28.8193 30.6011 28.8198 30.6016 28.8196 30.6013C28.8198 30.6016 28.8205 30.6023 28.8208 30.6025C28.8205 30.6023 28.821 30.6027 28.8208 30.6025C28.821 30.6027 28.8218 30.6036 28.8219 30.6037C28.8217 30.6035 28.8222 30.6039 28.8219 30.6037C28.8222 30.6039 28.823 30.6048 28.8233 30.605C28.823 30.6048 28.8235 30.6052 28.8233 30.605C28.8235 30.6052 28.8244 30.6062 28.8247 30.6064C28.8244 30.6062 28.8249 30.6067 28.8247 30.6064C28.8249 30.6067 28.8259 30.6076 28.8261 30.6078C28.8257 30.6075 28.8263 30.6081 28.8261 30.6078C28.8263 30.6081 28.8274 30.6092 28.8276 30.6094C28.8274 30.6092 28.8279 30.6096 28.8276 30.6094C28.8279 30.6096 28.829 30.6107 28.8293 30.6111C28.829 30.6107 28.8296 30.6113 28.8293 30.6111C28.8296 30.6113 28.8307 30.6125 28.831 30.6127C28.8307 30.6125 28.8312 30.613 28.831 30.6127C28.8313 30.6131 28.8324 30.6141 28.8328 30.6145C28.8324 30.6141 28.8331 30.6149 28.8328 30.6145C28.833 30.6147 28.8343 30.616 28.8347 30.6164C28.8343 30.616 28.8349 30.6166 28.8347 30.6164C28.835 30.6168 28.8362 30.6179 28.8366 30.6183C28.8362 30.6179 28.8369 30.6187 28.8366 30.6183C28.8369 30.6187 28.8383 30.6201 28.8387 30.6204C28.8383 30.6201 28.8391 30.6208 28.8387 30.6204C28.8391 30.6208 28.8405 30.6222 28.8408 30.6226C28.8405 30.6222 28.8412 30.6229 28.8408 30.6226C28.8412 30.6229 28.8426 30.6244 28.8431 30.6248C28.8427 30.6245 28.8434 30.6252 28.8431 30.6248C28.8436 30.6253 28.845 30.6267 28.8454 30.6271C28.8458 30.6276 28.8462 30.6279 28.8467 30.6284C28.847 30.6288 28.8474 30.6291 28.8478 30.6296C28.8483 30.6301 28.8487 30.6304 28.8492 30.6309C28.8495 30.6312 28.85 30.6317 28.8503 30.6321C28.8508 30.6326 28.8513 30.633 28.8518 30.6335C28.8521 30.6339 28.8526 30.6343 28.8531 30.6348C28.8535 30.6353 28.8539 30.6356 28.8544 30.6361C28.8549 30.6366 28.8553 30.6371 28.8558 30.6375C28.8563 30.638 28.8568 30.6385 28.8572 30.639C28.8577 30.6394 28.8582 30.6399 28.8587 30.6404C28.8591 30.6409 28.8597 30.6415 28.8602 30.6419C28.8607 30.6424 28.8611 30.6429 28.8616 30.6434C28.8622 30.644 28.8627 30.6444 28.8632 30.6449C28.8638 30.6455 28.8642 30.646 28.8647 30.6465C28.8653 30.647 28.8658 30.6475 28.8664 30.6481C28.8669 30.6486 28.8674 30.6492 28.8679 30.6497C28.8685 30.6503 28.8691 30.6509 28.8696 30.6513C28.8702 30.6519 28.8708 30.6525 28.8714 30.6531C28.8718 30.6536 28.8724 30.6542 28.873 30.6548C28.8736 30.6554 28.8742 30.656 28.8748 30.6566C28.8753 30.657 28.8759 30.6576 28.8765 30.6582C28.8771 30.6588 28.8778 30.6595 28.8784 30.6601C28.879 30.6607 28.8796 30.6613 28.8802 30.6619C28.8808 30.6625 28.8813 30.6631 28.8821 30.6638C28.8827 30.6644 28.8832 30.665 28.884 30.6657C28.8846 30.6663 28.8853 30.667 28.8859 30.6676C28.8865 30.6682 28.8872 30.6689 28.8878 30.6695C28.8885 30.6702 28.8892 30.6709 28.8898 30.6715C28.8905 30.6722 28.8912 30.6729 28.8918 30.6735C28.8925 30.6743 28.8932 30.675 28.8939 30.6757C28.8945 30.6763 28.8952 30.677 28.896 30.6777C28.8967 30.6784 28.8974 30.6791 28.8981 30.6798C28.8988 30.6805 28.8995 30.6813 28.9002 30.682C28.9009 30.6827 28.9018 30.6835 28.9025 30.6842C28.9032 30.6849 28.9039 30.6857 28.9046 30.6864C28.9055 30.6872 28.9062 30.6879 28.9069 30.6886C28.9077 30.6895 28.9084 30.6902 28.9093 30.691C28.91 30.6917 28.9108 30.6925 28.9115 30.6933C28.9123 30.6941 28.9132 30.6949 28.9139 30.6956C28.9147 30.6965 28.9156 30.6973 28.9164 30.6981C28.9171 30.6988 28.9179 30.6997 28.9188 30.7005C28.9196 30.7013 28.9204 30.7022 28.9213 30.703C28.9221 30.7038 28.9229 30.7047 28.9238 30.7055C28.9246 30.7063 28.9254 30.7072 28.9262 30.708C28.9272 30.7089 28.928 30.7098 28.9289 30.7106C28.9298 30.7116 28.9306 30.7124 28.9315 30.7132C28.9324 30.7142 28.9333 30.715 28.9342 30.7159C28.935 30.7168 28.936 30.7177 28.9368 30.7186C28.9378 30.7195 28.9387 30.7205 28.9396 30.7213C28.9405 30.7222 28.9415 30.7232 28.9424 30.7241C28.9434 30.7251 28.9442 30.7259 28.9451 30.7269C28.9461 30.7278 28.947 30.7288 28.948 30.7297C28.9489 30.7307 28.95 30.7317 28.951 30.7327C28.9519 30.7336 28.9529 30.7346 28.9538 30.7356C28.9549 30.7366 28.9558 30.7376 28.9568 30.7385C28.9578 30.7396 28.9588 30.7405 28.9599 30.7416C28.9608 30.7426 28.9619 30.7436 28.9628 30.7446C28.9639 30.7456 28.965 30.7467 28.9659 30.7477C28.967 30.7487 28.9681 30.7498 28.9691 30.7509C28.9701 30.7518 28.9712 30.7529 28.9722 30.754C28.9733 30.755 28.9744 30.7561 28.9754 30.7572C28.9765 30.7582 28.9776 30.7593 28.9788 30.7605C28.9798 30.7616 28.9809 30.7626 28.982 30.7637C28.9832 30.7649 28.9842 30.766 28.9853 30.767C28.9865 30.7682 28.9875 30.7693 28.9887 30.7705C28.9898 30.7715 28.991 30.7727 28.9922 30.7739C28.9932 30.775 28.9944 30.7762 28.9956 30.7774C28.9968 30.7786 28.9979 30.7796 28.9991 30.7808C29.0003 30.782 29.0014 30.7832 29.0026 30.7844C29.0038 30.7856 29.005 30.7868 29.0062 30.7879C29.0075 30.7892 29.0087 30.7904 29.0099 30.7916C29.0111 30.7928 29.0124 30.7941 29.0136 30.7953C29.0147 30.7965 29.0161 30.7978 29.0172 30.799C29.0186 30.8003 29.0197 30.8015 29.021 30.8028C29.0224 30.8041 29.0235 30.8053 29.0248 30.8066C29.0262 30.8079 29.0275 30.8092 29.0288 30.8105C29.0301 30.8118 29.0314 30.8131 29.0327 30.8144C29.034 30.8157 29.0353 30.817 29.0366 30.8183C29.0379 30.8197 29.0392 30.821 29.0405 30.8223C29.042 30.8237 29.0433 30.825 29.0447 30.8264C29.046 30.8277 29.0473 30.829 29.0487 30.8305C29.05 30.8318 29.0515 30.8332 29.0529 30.8346C29.0542 30.8359 29.0556 30.8374 29.057 30.8388C29.0585 30.8402 29.0599 30.8416 29.0613 30.8431C29.0627 30.8445 29.0642 30.8459 29.0656 30.8473C29.067 30.8488 29.0684 30.8502 29.0699 30.8516C29.0713 30.853 29.0727 30.8545 29.0743 30.856C29.0757 30.8574 29.0772 30.859 29.0787 30.8604C29.0802 30.8619 29.0816 30.8634 29.0832 30.8649C29.0846 30.8663 29.0861 30.8679 29.0877 30.8694C29.0891 30.8709 29.0907 30.8724 29.0922 30.8739C29.0937 30.8755 29.0953 30.877 29.0968 30.8786C29.0984 30.8801 29.0999 30.8817 29.1015 30.8832C29.103 30.8848 29.1047 30.8864 29.1062 30.888C29.1078 30.8895 29.1094 30.8912 29.111 30.8927C29.1126 30.8944 29.1142 30.8959 29.1158 30.8976C29.1174 30.8991 29.119 30.9008 29.1207 30.9025C29.1223 30.904 29.1239 30.9057 29.1256 30.9073C29.1272 30.909 29.1289 30.9107 29.1306 30.9123C29.1322 30.914 29.1339 30.9156 29.1356 30.9173C29.1372 30.919 29.139 30.9208 29.1407 30.9224C29.1423 30.9241 29.1441 30.9259 29.1458 30.9275C29.1476 30.9293 29.1492 30.931 29.151 30.9327C29.1527 30.9344 29.1545 30.9362 29.1562 30.938C29.158 30.9398 29.1597 30.9414 29.1615 30.9432C29.1632 30.945 29.165 30.9468 29.1668 30.9485C29.1686 30.9503 29.1704 30.9521 29.1723 30.954C29.1741 30.9558 29.1758 30.9576 29.1776 30.9594C29.1795 30.9613 29.1813 30.963 29.1832 30.9649C29.185 30.9667 29.1869 30.9686 29.1887 30.9704C29.1906 30.9723 29.1925 30.9742 29.1944 30.9761C29.1961 30.9779 29.198 30.9798 29.2 30.9817C29.2019 30.9836 29.2038 30.9855 29.2057 30.9874C29.2076 30.9893 29.2096 30.9913 29.2115 30.9932C29.2134 30.9951 29.2154 30.9971 29.2173 30.999C29.2192 31.0009 29.2212 31.003 29.2232 31.005C29.2251 31.0069 29.2272 31.0089 29.2292 31.0109C29.2311 31.0128 29.2331 31.0148 29.2351 31.0169C29.2371 31.0189 29.2392 31.0209 29.2412 31.0229C29.2432 31.0249 29.2452 31.027 29.2472 31.029C29.2494 31.0311 29.2514 31.0331 29.2534 31.0351C29.2555 31.0373 29.2576 31.0393 29.2597 31.0414C29.2617 31.0435 29.2639 31.0456 29.2659 31.0476C29.268 31.0498 29.2702 31.0519 29.2723 31.054C29.2744 31.0562 29.2766 31.0583 29.2787 31.0605C29.2808 31.0626 29.283 31.0647 29.2851 31.0669C29.2873 31.069 29.2894 31.0711 29.2917 31.0734C29.2938 31.0755 29.2961 31.0778 29.2982 31.0799C29.3004 31.0822 29.3026 31.0843 29.3048 31.0866C29.3071 31.0888 29.3092 31.091 29.3115 31.0932C29.3138 31.0955 29.316 31.0978 29.3183 31.1C29.3205 31.1023 29.3228 31.1045 29.3252 31.1069C29.3274 31.1092 29.3297 31.1114 29.3319 31.1137C29.3343 31.116 29.3366 31.1183 29.3389 31.1207C29.3412 31.1229 29.3436 31.1253 29.3459 31.1277C29.3482 31.1299 29.3506 31.1323 29.353 31.1347C29.3553 31.1371 29.3577 31.1395 29.3601 31.1418C29.3625 31.1442 29.3648 31.1466 29.3672 31.149C29.3696 31.1513 29.3721 31.1538 29.3745 31.1562C29.377 31.1587 29.3793 31.1611 29.3818 31.1636C29.3842 31.1659 29.3867 31.1684 29.3892 31.1709C29.3916 31.1733 29.3941 31.1758 29.3966 31.1783C29.399 31.1808 29.4015 31.1833 29.404 31.1858C29.4065 31.1883 29.409 31.1908 29.4116 31.1934C29.4141 31.1959 29.4166 31.1984 29.4192 31.201C29.4217 31.2035 29.4244 31.2061 29.4268 31.2086C29.4295 31.2112 29.4321 31.2138 29.4347 31.2164C29.4372 31.2189 29.4398 31.2215 29.4424 31.2242C29.445 31.2268 29.4476 31.2294 29.4504 31.2321C29.453 31.2347 29.4556 31.2373 29.4582 31.2399C29.4609 31.2427 29.4636 31.2453 29.4663 31.248C29.4689 31.2506 29.4716 31.2534 29.4744 31.2561C29.477 31.2587 29.4797 31.2615 29.4824 31.2642C29.4852 31.2669 29.4879 31.2696 29.4906 31.2724C29.4934 31.2751 29.4961 31.2778 29.499 31.2807C29.5017 31.2834 29.5044 31.2862 29.5073 31.289C29.51 31.2917 29.5129 31.2946 29.5157 31.2974C29.5184 31.3002 29.5213 31.303 29.5241 31.3059C29.527 31.3087 29.5298 31.3116 29.5327 31.3144C29.5355 31.3173 29.5384 31.3201 29.5412 31.323C29.5441 31.3258 29.5471 31.3288 29.5499 31.3317C29.5528 31.3345 29.5557 31.3375 29.5587 31.3404C29.5616 31.3433 29.5645 31.3463 29.5675 31.3492C29.5703 31.3521 29.5733 31.3551 29.5763 31.358C29.5793 31.361 29.5822 31.364 29.5853 31.3671C29.5883 31.37 29.5913 31.373 29.5942 31.376C29.5973 31.3791 29.6003 31.382 29.6034 31.3851C29.6063 31.3881 29.6094 31.3912 29.6125 31.3943C29.6156 31.3974 29.6186 31.4003 29.6217 31.4034C29.6248 31.4065 29.6278 31.4096 29.6311 31.4128C29.6341 31.4159 29.6372 31.419 29.6403 31.4221C29.6435 31.4253 29.6466 31.4284 29.6498 31.4316C29.6529 31.4347 29.6561 31.4379 29.6593 31.4411C29.6625 31.4443 29.6656 31.4474 29.6688 31.4506C29.672 31.4538 29.6752 31.457 29.6785 31.4602C29.6818 31.4635 29.685 31.4667 29.6882 31.4699C29.6915 31.4733 29.6947 31.4765 29.6981 31.4798C29.7013 31.483 29.7046 31.4863 29.7079 31.4897C29.7111 31.4929 29.7144 31.4962 29.7178 31.4995C29.7211 31.5028 29.7244 31.5062 29.7278 31.5095C29.7312 31.5129 29.7345 31.5163 29.7378 31.5196C29.7413 31.523 29.7446 31.5264 29.7481 31.5298C29.7514 31.5331 29.7548 31.5366 29.7583 31.54C29.7617 31.5435 29.7651 31.5468 29.7685 31.5502C29.7719 31.5537 29.7755 31.5572 29.779 31.5607C29.7824 31.5641 29.7858 31.5676 29.7894 31.5711C29.7928 31.5746 29.7964 31.5782 29.7999 31.5816C29.8034 31.5852 29.807 31.5887 29.8104 31.5922C29.814 31.5957 29.8176 31.5993 29.8211 31.6029C29.8247 31.6064 29.8283 31.61 29.8319 31.6137C29.8355 31.6172 29.8391 31.6208 29.8427 31.6245C29.8463 31.628 29.85 31.6317 29.8537 31.6354C29.8572 31.639 29.8609 31.6427 29.8646 31.6463C29.8683 31.65 29.872 31.6537 29.8756 31.6574C29.8793 31.6611 29.883 31.6648 29.8868 31.6686C29.8905 31.6722 29.8942 31.6759 29.898 31.6797C29.9017 31.6834 29.9055 31.6872 29.9093 31.691C29.9131 31.6948 29.9169 31.6986 29.9207 31.7024C29.9244 31.7061 29.9283 31.71 29.9321 31.7138C29.9359 31.7176 29.9397 31.7214 29.9436 31.7253C29.9474 31.7291 29.9513 31.7331 29.9551 31.7369C29.959 31.7408 29.963 31.7447 29.9669 31.7486C29.9707 31.7524 29.9746 31.7563 29.9785 31.7603C29.9826 31.7643 29.9865 31.7682 29.9904 31.7721C29.9943 31.7761 29.9984 31.7801 30.0023 31.784C30.0063 31.7881 30.0102 31.792 30.0143 31.796C30.0183 31.8001 30.0224 31.8041 30.0264 31.8081C30.0304 31.8122 30.0345 31.8162 30.0385 31.8203C30.0426 31.8243 30.0467 31.8285 30.0508 31.8325C30.0548 31.8365 30.0589 31.8407 30.0631 31.8448C30.0671 31.8489 30.0713 31.853 30.0755 31.8572C30.0796 31.8614 30.0838 31.8655 30.0879 31.8697C30.0921 31.8738 30.0962 31.878 30.1005 31.8823C30.1047 31.8864 30.1088 31.8906 30.1131 31.8949C30.1174 31.8991 30.1216 31.9033 30.1258 31.9076C30.1301 31.9118 30.1344 31.9161 30.1387 31.9204C30.1429 31.9247 30.1472 31.929 30.1515 31.9332C30.1558 31.9375 30.1602 31.9419 30.1644 31.9462C30.1688 31.9506 30.1731 31.9549 30.1775 31.9592C30.1819 31.9636 30.1863 31.968 30.1907 31.9724C30.1951 31.9768 30.1995 31.9812 30.2039 31.9856C30.2083 31.99 30.2127 31.9944 30.2172 31.9989C30.2216 32.0033 30.2261 32.0078 30.2306 32.0123C30.235 32.0167 30.2395 32.0213 30.244 32.0258C30.2485 32.0303 30.2531 32.0348 30.2576 32.0393C30.2621 32.0438 30.2666 32.0483 30.2712 32.053C30.2757 32.0575 30.2804 32.0621 30.2849 32.0666C30.2895 32.0713 30.2942 32.0759 30.2988 32.0805C30.3033 32.085 30.3079 32.0897 30.3127 32.0944C30.3173 32.0991 30.322 32.1037 30.3266 32.1083C30.3313 32.1131 30.336 32.1177 30.3407 32.1225C30.3454 32.1271 30.3501 32.1319 30.3549 32.1366C30.3596 32.1414 30.3644 32.1461 30.3691 32.1509C30.3739 32.1556 30.3786 32.1604 30.3834 32.1651C30.3882 32.17 30.393 32.1747 30.3979 32.1796C30.4026 32.1844 30.4075 32.1892 30.4124 32.1941C30.4171 32.1989 30.422 32.2037 30.4269 32.2086C30.4318 32.2136 30.4367 32.2185 30.4416 32.2233C30.4465 32.2282 30.4514 32.2332 30.4563 32.2381C30.4613 32.243 30.4663 32.248 30.4712 32.2529C30.4762 32.2579 30.4811 32.2629 30.4861 32.2679C30.4911 32.2729 30.4961 32.2779 30.5012 32.283C30.5062 32.288 30.5112 32.2929 30.5163 32.298C30.5214 32.3032 30.5264 32.3081 30.5315 32.3133C30.5366 32.3184 30.5417 32.3235 30.5468 32.3286C30.5519 32.3337 30.5571 32.3388 30.5622 32.3439C30.5674 32.3491 30.5725 32.3542 30.5777 32.3595C30.5828 32.3646 30.5881 32.3698 30.5933 32.375C30.5985 32.3803 30.6037 32.3855 30.609 32.3907C30.6142 32.3959 30.6194 32.4012 30.6246 32.4064C30.63 32.4117 30.6352 32.417 30.6406 32.4223C30.6458 32.4275 30.6511 32.4329 30.6565 32.4382C30.6618 32.4436 30.6672 32.4489 30.6725 32.4543C30.6779 32.4596 30.6832 32.465 30.6887 32.4704C30.694 32.4758 30.6995 32.4812 30.7048 32.4866C30.7103 32.492 30.7158 32.4975 30.7211 32.5028C30.7266 32.5083 30.732 32.5138 30.7376 32.5194C30.7431 32.5248 30.7485 32.5303 30.754 32.5358C30.7596 32.5413 30.7651 32.5468 30.7706 32.5524C30.7762 32.558 30.7818 32.5636 30.7874 32.5691C30.7929 32.5746 30.7986 32.5803 30.8041 32.5859C30.8097 32.5915 30.8153 32.5971 30.821 32.6028C30.8266 32.6083 30.8323 32.614 30.838 32.6197C30.8436 32.6253 30.8493 32.631 30.855 32.6367C30.8607 32.6424 30.8664 32.6481 30.8722 32.654C30.8779 32.6597 30.8836 32.6654 30.8894 32.6712C30.8953 32.677 30.901 32.6827 30.9068 32.6885C30.9126 32.6943 30.9184 32.7002 30.9242 32.706C30.9301 32.7118 30.9359 32.7176 30.9418 32.7236C30.9476 32.7294 30.9535 32.7352 30.9594 32.7411C30.9653 32.7471 30.9712 32.7529 30.9771 32.7588C30.983 32.7648 30.989 32.7707 30.9949 32.7767C31.001 32.7827 31.0069 32.7887 31.0129 32.7946C31.0189 32.8007 31.0249 32.8066 31.0309 32.8127C31.037 32.8187 31.043 32.8248 31.0491 32.8308C31.0552 32.8369 31.0612 32.843 31.0673 32.849C31.0733 32.8551 31.0795 32.8612 31.0856 32.8673C31.0917 32.8735 31.0979 32.8797 31.104 32.8857C31.1102 32.8919 31.1163 32.8981 31.1225 32.9043C31.1287 32.9104 31.135 32.9167 31.1412 32.9229C31.1473 32.9291 31.1536 32.9354 31.1599 32.9417C31.1661 32.9478 31.1724 32.9541 31.1787 32.9604C31.185 32.9667 31.1913 32.973 31.1976 32.9793C31.204 32.9857 31.2103 32.992 31.2166 32.9983C31.223 33.0048 31.2294 33.0112 31.2357 33.0175C31.2421 33.0239 31.2486 33.0303 31.255 33.0367C31.2614 33.0431 31.2679 33.0497 31.2743 33.0561C31.2807 33.0625 31.2873 33.069 31.2937 33.0754C31.3002 33.082 31.3068 33.0885 31.3133 33.095C31.3198 33.1016 31.3264 33.1081 31.3329 33.1146C31.3394 33.1212 31.3461 33.1278 31.3526 33.1344C31.3593 33.141 31.3658 33.1475 31.3725 33.1542C31.3791 33.1608 31.3858 33.1675 31.3924 33.1742C31.3991 33.1808 31.4057 33.1875 31.4125 33.1942C31.4191 33.2009 31.4258 33.2075 31.4326 33.2143C31.4393 33.2211 31.4461 33.2278 31.4528 33.2345C31.4595 33.2413 31.4664 33.2482 31.4732 33.2549C31.48 33.2617 31.4867 33.2685 31.4936 33.2754C31.5004 33.2821 31.5073 33.289 31.5142 33.2959C31.5211 33.3028 31.528 33.3097 31.5348 33.3166C31.5417 33.3235 31.5486 33.3304 31.5556 33.3374C31.5625 33.3443 31.5695 33.3513 31.5764 33.3582C31.5834 33.3652 31.5904 33.3722 31.5974 33.3792C31.6045 33.3862 31.6115 33.3932 31.6185 33.4002C31.6256 33.4073 31.6326 33.4144 31.6397 33.4215C31.6467 33.4285 31.6539 33.4356 31.661 33.4427C31.6681 33.4499 31.6753 33.457 31.6824 33.4641C31.6895 33.4713 31.6968 33.4785 31.7039 33.4856C31.7111 33.4929 31.7183 33.5 31.7255 33.5073C31.7328 33.5145 31.74 33.5217 31.7472 33.529C31.7545 33.5362 31.7619 33.5436 31.7691 33.5508C31.7764 33.5581 31.7837 33.5655 31.7911 33.5728C31.7983 33.5801 31.8057 33.5874 31.8131 33.5948C31.8204 33.6022 31.8278 33.6095 31.8353 33.617C31.8426 33.6244 31.85 33.6317 31.8575 33.6392C31.865 33.6467 31.8723 33.6541 31.8798 33.6616C31.8873 33.669 31.8948 33.6765 31.9024 33.6841C31.9099 33.6916 31.9174 33.6991 31.925 33.7067C31.9324 33.7142 31.94 33.7218 31.9477 33.7294C31.9553 33.737 31.9629 33.7446 31.9705 33.7522C31.9781 33.7598 31.9857 33.7674 31.9934 33.7751C32.001 33.7827 32.0087 33.7905 32.0164 33.7982C32.024 33.8058 32.0318 33.8135 32.0396 33.8213C32.0473 33.8291 32.055 33.8368 32.0628 33.8445C32.0706 33.8523 32.0783 33.8601 32.0862 33.8679C32.094 33.8757 32.1018 33.8836 32.1097 33.8914C32.1175 33.8993 32.1254 33.9071 32.1332 33.915C32.141 33.9228 32.149 33.9308 32.157 33.9387C32.1648 33.9466 32.1728 33.9545 32.1807 33.9625C32.1887 33.9704 32.1966 33.9784 32.2046 33.9863C32.2127 33.9944 32.2206 34.0024 32.2287 34.0105C32.2367 34.0184 32.2448 34.0265 32.2528 34.0346C32.2609 34.0427 32.269 34.0507 32.2771 34.0588C32.2853 34.067 32.2933 34.0751 32.3015 34.0833C32.3096 34.0914 32.3178 34.0996 32.326 34.1078C32.3342 34.116 32.3424 34.1241 32.3506 34.1323C32.3588 34.1405 32.367 34.1487 32.3753 34.1571C32.3835 34.1652 32.3918 34.1736 32.4001 34.1819C32.4085 34.1902 32.4168 34.1985 32.4251 34.2068C32.4334 34.2151 32.4417 34.2235 32.4501 34.2319C32.4585 34.2402 32.4669 34.2486 32.4753 34.2571C32.4838 34.2655 32.4922 34.2739 32.5006 34.2824C32.5091 34.2908 32.5175 34.2992 32.5261 34.3078C32.5345 34.3162 32.543 34.3248 32.5516 34.3333C32.56 34.3418 32.5686 34.3503 32.5773 34.359C32.5858 34.3676 32.5944 34.3761 32.6029 34.3847C32.6116 34.3933 32.6201 34.4019 32.6288 34.4106C32.6375 34.4192 32.6462 34.4279 32.6548 34.4366C32.6635 34.4452 32.6722 34.4539 32.681 34.4627C32.6896 34.4714 32.6984 34.4802 32.7072 34.489C32.7159 34.4976 32.7247 34.5064 32.7335 34.5152C32.7424 34.5241 32.7512 34.5329 32.76 34.5417C32.7689 34.5506 32.7777 34.5594 32.7866 34.5683C32.7955 34.5772 32.8044 34.5861 32.8133 34.595C32.8222 34.604 32.8311 34.6129 32.8402 34.6219C32.8491 34.6308 32.8581 34.6398 32.8671 34.6489C32.876 34.6578 32.8851 34.6668 32.8941 34.6758C32.9031 34.6849 32.9123 34.694 32.9213 34.703C32.9304 34.7122 32.9395 34.7212 32.9486 34.7304C32.9578 34.7395 32.9669 34.7486 32.9761 34.7578C32.9852 34.7669 32.9943 34.7761 33.0036 34.7854C33.0128 34.7945 33.022 34.8038 33.0313 34.813C33.0404 34.8222 33.0497 34.8314 33.0591 34.8408C33.0684 34.8501 33.0776 34.8594 33.087 34.8687C33.0963 34.878 33.1057 34.8874 33.1149 34.8967C33.1243 34.906 33.1337 34.9154 33.1431 34.9248C33.1526 34.9343 33.162 34.9437 33.1715 34.9532C33.1809 34.9626 33.1904 34.9721 33.1999 34.9816C33.2092 34.991 33.2187 35.0005 33.2284 35.0101C33.2379 35.0196 33.2474 35.0291 33.257 35.0387C33.2665 35.0482 33.2761 35.0579 33.2857 35.0675C33.2954 35.0771 33.305 35.0867 33.3146 35.0964C33.3242 35.106 33.334 35.1157 33.3436 35.1253C33.3533 35.1351 33.3631 35.1448 33.3728 35.1546C33.3826 35.1643 33.3923 35.174 33.402 35.1838C33.4118 35.1935 33.4216 35.2034 33.4314 35.2131C33.4412 35.223 33.4511 35.2329 33.461 35.2427C33.4708 35.2526 33.4807 35.2624 33.4905 35.2723C33.5005 35.2823 33.5104 35.2921 33.5204 35.3021C33.5303 35.3121 33.5403 35.3221 33.5503 35.332C33.5603 35.342 33.5703 35.352 33.5802 35.362C33.5903 35.3721 33.6003 35.3821 33.6104 35.3922C33.6205 35.4023 33.6306 35.4123 33.6407 35.4224C33.6508 35.4325 33.6609 35.4426 33.6711 35.4529C33.6812 35.463 33.6914 35.4732 33.7016 35.4834C33.7119 35.4936 33.7221 35.5038 33.7323 35.514C33.7425 35.5243 33.7527 35.5345 33.7631 35.5448C33.7733 35.555 33.7836 35.5654 33.7939 35.5757C33.8043 35.586 33.8146 35.5964 33.825 35.6067C33.8354 35.6171 33.8457 35.6275 33.8562 35.6379C33.8665 35.6483 33.877 35.6587 33.8874 35.6692C33.8979 35.6796 33.9083 35.6901 33.9189 35.7007C33.9294 35.7111 33.9398 35.7216 33.9504 35.7321C33.961 35.7427 33.9715 35.7533 33.9821 35.7639C33.9927 35.7744 34.0033 35.785 34.014 35.7957C34.0245 35.8063 34.0352 35.817 34.0459 35.8277C34.0565 35.8382 34.0672 35.8489 34.078 35.8597C34.0887 35.8704 34.0994 35.8811 34.1102 35.8919C34.1209 35.9026 34.1317 35.9134 34.1425 35.9242C34.1533 35.935 34.1641 35.9459 34.1749 35.9567C34.1857 35.9675 34.1967 35.9784 34.2075 35.9892C34.2184 36.0001 34.2293 36.0111 34.2403 36.022C34.2512 36.0329 34.2621 36.0439 34.2732 36.0549C34.2841 36.0658 34.2951 36.0769 34.3061 36.0878C34.3171 36.0989 34.3282 36.1099 34.3392 36.121C34.3503 36.132 34.3614 36.1432 34.3725 36.1542C34.3836 36.1654 34.3947 36.1764 34.4059 36.1876C34.417 36.1988 34.4282 36.2099 34.4394 36.2211C34.4506 36.2324 34.4618 36.2435 34.4731 36.2548C34.4843 36.266 34.4955 36.2773 34.5068 36.2886C34.5181 36.2999 34.5294 36.3111 34.5408 36.3225C34.5521 36.3338 34.5635 36.3452 34.5748 36.3565C34.5862 36.3679 34.5976 36.3793 34.609 36.3907C34.6204 36.4021 34.6319 36.4137 34.6433 36.4251C34.6548 36.4366 34.6663 36.448 34.6778 36.4595C34.6893 36.471 34.7008 36.4826 34.7125 36.4942C34.724 36.5057 34.7355 36.5173 34.7471 36.5289L36.5291 34.747C36.5174 34.7353 36.5059 34.7238 36.4944 34.7123C36.4827 34.7007 36.4712 34.6891 36.4597 34.6776C36.4482 34.6661 36.4368 34.6547 36.4252 34.6432C36.4138 34.6318 36.4023 34.6202 36.3909 34.6088C36.3795 34.5974 36.3681 34.586 36.3567 34.5746C36.3454 34.5633 36.334 34.5519 36.3227 34.5406C36.3113 34.5292 36.3 34.518 36.2887 34.5067C36.2775 34.4954 36.2662 34.4841 36.255 34.4729C36.2437 34.4616 36.2325 34.4505 36.2213 34.4392C36.2101 34.428 36.1989 34.4169 36.1878 34.4057C36.1766 34.3945 36.1656 34.3835 36.1544 34.3723C36.1433 34.3613 36.1322 34.3501 36.1211 34.339C36.1101 34.328 36.099 34.3169 36.088 34.3059C36.077 34.295 36.066 34.2839 36.0551 34.273C36.044 34.2619 36.0331 34.251 36.0222 34.2401C36.0112 34.2292 36.0003 34.2182 35.9894 34.2073C35.9786 34.1965 35.9676 34.1856 35.9568 34.1748C35.946 34.1639 35.9352 34.1531 35.9244 34.1423C35.9136 34.1315 35.9028 34.1207 35.8921 34.11C35.8813 34.0992 35.8706 34.0885 35.8599 34.0778C35.8491 34.067 35.8384 34.0563 35.8278 34.0457C35.8171 34.0351 35.8064 34.0244 35.7959 34.0138C35.7852 34.0031 35.7746 33.9925 35.764 33.982C35.7535 33.9714 35.7429 33.9608 35.7323 33.9502C35.7217 33.9397 35.7113 33.9292 35.7008 33.9188C35.6903 33.9082 35.6798 33.8977 35.6693 33.8873C35.6589 33.8768 35.6484 33.8664 35.6381 33.856C35.6277 33.8456 35.6173 33.8352 35.6069 33.8248C35.5965 33.8145 35.5862 33.8041 35.5759 33.7938C35.5655 33.7834 35.5552 33.7731 35.545 33.7629C35.5346 33.7526 35.5244 33.7423 35.5142 33.7321C35.504 33.7219 35.4938 33.7117 35.4836 33.7015C35.4733 33.6913 35.4631 33.681 35.453 33.6709C35.4428 33.6607 35.4327 33.6506 35.4226 33.6405C35.4125 33.6304 35.4024 33.6203 35.3923 33.6102C35.3822 33.6001 35.3722 33.5902 35.3621 33.5801C35.3522 33.5701 35.3422 33.5601 35.3322 33.5501C35.3222 33.5402 35.3123 33.5302 35.3023 33.5202C35.2923 33.5102 35.2824 33.5004 35.2725 33.4904C35.2626 33.4805 35.2527 33.4707 35.2429 33.4608C35.233 33.4509 35.2232 33.4411 35.2133 33.4312C35.2036 33.4215 35.1937 33.4116 35.184 33.4019C35.1742 33.3921 35.1645 33.3824 35.1547 33.3727C35.145 33.3629 35.1352 33.3532 35.1255 33.3434C35.1159 33.3338 35.1061 33.3241 35.0965 33.3144C35.0869 33.3048 35.0773 33.2952 35.0677 33.2856C35.058 33.276 35.0484 33.2663 35.0389 33.2568C35.0293 33.2472 35.0198 33.2377 35.0103 33.2282C35.0007 33.2186 34.9912 33.2091 34.9818 33.1997C34.9723 33.1902 34.9628 33.1807 34.9534 33.1713C34.9439 33.1618 34.9345 33.1524 34.925 33.1429C34.9156 33.1335 34.9062 33.1241 34.8968 33.1148C34.8876 33.1055 34.8782 33.0961 34.8689 33.0868C34.8595 33.0775 34.8503 33.0682 34.841 33.0589C34.8316 33.0495 34.8223 33.0403 34.8132 33.0311C34.8039 33.0219 34.7947 33.0126 34.7855 33.0034C34.7763 32.9942 34.7671 32.985 34.758 32.9759C34.7488 32.9667 34.7397 32.9576 34.7305 32.9484C34.7214 32.9393 34.7123 32.9303 34.7032 32.9211C34.6942 32.9121 34.685 32.9029 34.676 32.8939C34.667 32.8849 34.6579 32.8759 34.649 32.867C34.64 32.8579 34.631 32.8489 34.6221 32.84C34.613 32.831 34.6041 32.822 34.5952 32.8131C34.5863 32.8042 34.5774 32.7953 34.5685 32.7864C34.5596 32.7775 34.5508 32.7687 34.5419 32.7598C34.5331 32.751 34.5243 32.7422 34.5154 32.7333C34.5066 32.7245 34.4978 32.7157 34.4891 32.7071C34.4803 32.6983 34.4715 32.6895 34.4629 32.6808C34.4541 32.672 34.4454 32.6633 34.4367 32.6547C34.4281 32.646 34.4194 32.6373 34.4107 32.6286C34.4021 32.62 34.3935 32.6114 34.3848 32.6028C34.3763 32.5942 34.3677 32.5856 34.3592 32.5771C34.3505 32.5684 34.3419 32.5599 34.3335 32.5514C34.325 32.5429 34.3164 32.5343 34.308 32.5259C34.2994 32.5173 34.291 32.5089 34.2825 32.5005C34.2741 32.492 34.2657 32.4836 34.2572 32.4752C34.2488 32.4667 34.2404 32.4583 34.2321 32.45C34.2236 32.4415 34.2153 32.4332 34.207 32.4249C34.1987 32.4166 34.1904 32.4083 34.182 32.4C34.1737 32.3917 34.1654 32.3833 34.1572 32.3751C34.1489 32.3668 34.1407 32.3586 34.1325 32.3504C34.1243 32.3422 34.1161 32.334 34.1079 32.3258C34.0997 32.3176 34.0915 32.3095 34.0834 32.3014C34.0753 32.2932 34.0672 32.2851 34.059 32.2769C34.0509 32.2688 34.0428 32.2607 34.0347 32.2527C34.0267 32.2446 34.0186 32.2365 34.0106 32.2286C34.0025 32.2205 33.9946 32.2125 33.9865 32.2044C33.9786 32.1965 33.9706 32.1885 33.9626 32.1806C33.9547 32.1726 33.9467 32.1646 33.9389 32.1568C33.9309 32.1488 33.923 32.1409 33.9151 32.133C33.9073 32.1252 33.8994 32.1174 33.8916 32.1095C33.8838 32.1017 33.8759 32.0938 33.8681 32.086C33.8602 32.0782 33.8525 32.0704 33.8447 32.0626C33.837 32.0549 33.8292 32.0472 33.8215 32.0394C33.8137 32.0316 33.8059 32.0239 33.7983 32.0163C33.7906 32.0085 33.7829 32.0008 33.7753 31.9932C33.7676 31.9855 33.76 31.9779 33.7524 31.9703C33.7448 31.9627 33.7372 31.9551 33.7296 31.9475C33.722 31.9399 33.7144 31.9323 33.7069 31.9248C33.6993 31.9172 33.6918 31.9097 33.6843 31.9022C33.6767 31.8946 33.6692 31.8871 33.6617 31.8797C33.6542 31.8722 33.6469 31.8648 33.6394 31.8573C33.6319 31.8498 33.6245 31.8425 33.6172 31.8351C33.6097 31.8276 33.6023 31.8203 33.595 31.8129C33.5876 31.8055 33.5802 31.7982 33.573 31.7909C33.5656 31.7836 33.5583 31.7762 33.551 31.7689C33.5438 31.7617 33.5364 31.7543 33.5292 31.7471C33.5219 31.7398 33.5147 31.7326 33.5074 31.7253C33.5002 31.7181 33.493 31.711 33.4858 31.7037C33.4787 31.6966 33.4714 31.6893 33.4643 31.6822C33.4572 31.6751 33.45 31.668 33.4429 31.6608C33.4358 31.6537 33.4287 31.6466 33.4216 31.6396C33.4145 31.6324 33.4075 31.6254 33.4004 31.6183C33.3934 31.6113 33.3864 31.6043 33.3794 31.5973C33.3723 31.5903 33.3653 31.5833 33.3583 31.5763C33.3514 31.5694 33.3444 31.5624 33.3375 31.5555C33.3305 31.5485 33.3236 31.5416 33.3168 31.5347C33.3099 31.5278 33.303 31.5209 33.2961 31.514C33.2892 31.5071 33.2823 31.5002 33.2755 31.4935C33.2686 31.4866 33.2619 31.4798 33.2551 31.473C33.2483 31.4663 33.2414 31.4594 33.2347 31.4526C33.228 31.4459 33.2212 31.4392 33.2145 31.4324C33.2077 31.4256 33.201 31.419 33.1944 31.4123C33.1876 31.4055 33.181 31.3989 33.1743 31.3922C33.1677 31.3856 33.161 31.3789 33.1544 31.3723C33.1477 31.3656 33.1412 31.3591 33.1345 31.3524C33.128 31.3459 33.1213 31.3393 33.1148 31.3327C33.1083 31.3262 33.1017 31.3197 33.0952 31.3131C33.0887 31.3066 33.0821 31.3001 33.0756 31.2935C33.0692 31.2871 33.0627 31.2806 33.0562 31.2742C33.0498 31.2677 33.0433 31.2612 33.0369 31.2548C33.0305 31.2484 33.024 31.242 33.0176 31.2356C33.0113 31.2293 33.0049 31.2228 32.9985 31.2164C32.9922 31.2101 32.9859 31.2038 32.9795 31.1974C32.9732 31.1911 32.9669 31.1848 32.9606 31.1785C32.9543 31.1722 32.948 31.1659 32.9418 31.1598C32.9355 31.1535 32.9292 31.1472 32.9231 31.141C32.9169 31.1348 32.9106 31.1285 32.9044 31.1223C32.8982 31.1162 32.8921 31.11 32.8859 31.1038C32.8798 31.0978 32.8737 31.0916 32.8675 31.0854C32.8614 31.0793 32.8552 31.0732 32.8492 31.0671C32.8431 31.061 32.8371 31.055 32.831 31.0489C32.8249 31.0429 32.8189 31.0368 32.8128 31.0308C32.8068 31.0247 32.8008 31.0188 32.7948 31.0127C32.7888 31.0068 32.7829 31.0008 32.7768 30.9948C32.7709 30.9888 32.765 30.9829 32.759 30.9769C32.7531 30.971 32.7473 30.9652 32.7413 30.9592C32.7354 30.9533 32.7296 30.9475 32.7237 30.9417C32.7178 30.9357 32.712 30.9299 32.7062 30.9241C32.7003 30.9183 32.6945 30.9124 32.6887 30.9066C32.6829 30.9008 32.6772 30.8951 32.6713 30.8893C32.6655 30.8834 32.6598 30.8777 32.6541 30.872C32.6483 30.8662 32.6426 30.8605 32.6369 30.8548C32.6312 30.8491 32.6255 30.8434 32.6199 30.8378C32.6142 30.8321 32.6085 30.8264 32.6029 30.8208C32.5972 30.8151 32.5916 30.8096 32.5861 30.804C32.5805 30.7984 32.5748 30.7927 32.5693 30.7872C32.5637 30.7816 32.5581 30.7761 32.5526 30.7705C32.547 30.7649 32.5415 30.7594 32.5359 30.7538C32.5305 30.7484 32.525 30.7429 32.5195 30.7375C32.5139 30.7319 32.5085 30.7264 32.503 30.7209C32.4977 30.7156 32.4922 30.7101 32.4867 30.7047C32.4814 30.6993 32.4759 30.6939 32.4706 30.6885C32.4651 30.683 32.4598 30.6777 32.4544 30.6724C32.4491 30.667 32.4437 30.6617 32.4384 30.6563C32.433 30.651 32.4277 30.6456 32.4225 30.6404C32.4171 30.6351 32.4119 30.6298 32.4066 30.6245C32.4013 30.6193 32.3961 30.614 32.3909 30.6088C32.3856 30.6036 32.3804 30.5983 32.3752 30.5931C32.37 30.5879 32.3647 30.5827 32.3596 30.5776C32.3544 30.5723 32.3493 30.5672 32.3441 30.562C32.339 30.5569 32.3339 30.5518 32.3287 30.5467C32.3236 30.5416 32.3185 30.5365 32.3134 30.5313C32.3083 30.5262 32.3033 30.5212 32.2982 30.5161C32.2931 30.511 32.2881 30.506 32.2831 30.5011C32.278 30.4959 32.273 30.491 32.268 30.486C32.2631 30.481 32.2581 30.476 32.2531 30.471C32.2482 30.4661 32.2432 30.4611 32.2382 30.4561C32.2334 30.4513 32.2284 30.4463 32.2235 30.4414C32.2186 30.4365 32.2138 30.4317 32.2088 30.4267C32.2039 30.4218 32.199 30.4169 32.1943 30.4122C32.1894 30.4073 32.1845 30.4025 32.1798 30.3977C32.1749 30.3928 32.1702 30.3881 32.1653 30.3832C32.1605 30.3785 32.1558 30.3737 32.151 30.369C32.1463 30.3642 32.1415 30.3594 32.1368 30.3547C32.132 30.3499 32.1273 30.3452 32.1226 30.3406C32.1179 30.3358 32.1133 30.3312 32.1085 30.3264C32.1039 30.3218 32.0992 30.3172 32.0946 30.3125C32.0898 30.3078 32.0852 30.3031 32.0807 30.2986C32.0761 30.294 32.0714 30.2894 32.0668 30.2847C32.0623 30.2802 32.0577 30.2756 32.0531 30.2711C32.0485 30.2664 32.044 30.2619 32.0395 30.2574C32.035 30.2529 32.0305 30.2484 32.0259 30.2439C32.0214 30.2393 32.0169 30.2348 32.0125 30.2304C32.008 30.2259 32.0035 30.2214 31.9991 30.217C31.9946 30.2125 31.9902 30.2081 31.9858 30.2037C31.9814 30.1993 31.977 30.1949 31.9726 30.1905C31.9682 30.1861 31.9638 30.1817 31.9594 30.1773C31.955 30.1729 31.9507 30.1687 31.9463 30.1643C31.9421 30.16 31.9377 30.1556 31.9334 30.1513C31.9291 30.147 31.9248 30.1428 31.9206 30.1385C31.9163 30.1342 31.912 30.1299 31.9077 30.1257C31.9035 30.1214 31.8993 30.1172 31.895 30.113C31.8908 30.1087 31.8866 30.1045 31.8824 30.1004C31.8782 30.0961 31.874 30.0919 31.8698 30.0878C31.8657 30.0836 31.8615 30.0795 31.8574 30.0753C31.8532 30.0711 31.8491 30.067 31.845 30.0629C31.8409 30.0588 31.8367 30.0546 31.8327 30.0506C31.8286 30.0465 31.8245 30.0424 31.8204 30.0383C31.8164 30.0343 31.8123 30.0303 31.8083 30.0262C31.8043 30.0222 31.8002 30.0182 31.7962 30.0141C31.7922 30.0101 31.7882 30.0062 31.7842 30.0021C31.7803 29.9982 31.7762 29.9942 31.7723 29.9902C31.7684 29.9863 31.7645 29.9824 31.7604 29.9784C31.7565 29.9744 31.7526 29.9705 31.7488 29.9667C31.7449 29.9628 31.741 29.9589 31.737 29.955C31.7332 29.9512 31.7293 29.9472 31.7255 29.9434C31.7216 29.9395 31.7178 29.9357 31.714 29.9319C31.7102 29.9281 31.7063 29.9242 31.7026 29.9205C31.6988 29.9167 31.695 29.9129 31.6912 29.9091C31.6874 29.9053 31.6836 29.9015 31.6799 29.8978C31.6761 29.894 31.6724 29.8903 31.6687 29.8866C31.6649 29.8828 31.6612 29.8792 31.6576 29.8755C31.6539 29.8718 31.6502 29.8681 31.6465 29.8644C31.6428 29.8608 31.6391 29.8571 31.6356 29.8535C31.6319 29.8498 31.6282 29.8461 31.6247 29.8426C31.621 29.8389 31.6174 29.8353 31.6138 29.8318C31.6102 29.8281 31.6066 29.8245 31.603 29.821C31.5995 29.8174 31.5959 29.8138 31.5923 29.8103C31.5889 29.8068 31.5853 29.8033 31.5818 29.7997C31.5783 29.7962 31.5748 29.7927 31.5713 29.7892C31.5678 29.7857 31.5643 29.7822 31.5609 29.7788C31.5574 29.7753 31.5539 29.7718 31.5504 29.7683C31.547 29.7649 31.5436 29.7616 31.5402 29.7581C31.5367 29.7547 31.5333 29.7512 31.53 29.7479C31.5265 29.7445 31.5232 29.7411 31.5198 29.7377C31.5164 29.7344 31.5131 29.731 31.5097 29.7276C31.5063 29.7243 31.503 29.7209 31.4997 29.7176C31.4964 29.7143 31.493 29.711 31.4898 29.7077C31.4865 29.7044 31.4832 29.7011 31.48 29.6979C31.4766 29.6946 31.4734 29.6914 31.4701 29.688C31.4669 29.6848 31.4637 29.6816 31.4604 29.6783C31.4572 29.6751 31.4539 29.6719 31.4507 29.6687C31.4475 29.6655 31.4444 29.6624 31.4412 29.6592C31.438 29.656 31.4348 29.6527 31.4317 29.6497C31.4285 29.6464 31.4254 29.6434 31.4222 29.6402C31.4191 29.6371 31.4161 29.634 31.413 29.6309C31.4098 29.6277 31.4067 29.6246 31.4036 29.6215C31.4005 29.6184 31.3975 29.6154 31.3944 29.6124C31.3913 29.6093 31.3883 29.6062 31.3853 29.6032C31.3822 29.6001 31.3792 29.5971 31.3761 29.5941C31.3732 29.5911 31.3702 29.5881 31.3672 29.5852C31.3641 29.5821 31.3612 29.5791 31.3582 29.5761C31.3552 29.5732 31.3523 29.5702 31.3494 29.5673C31.3464 29.5644 31.3435 29.5614 31.3406 29.5585C31.3376 29.5556 31.3347 29.5526 31.3318 29.5497C31.329 29.5469 31.326 29.5439 31.3232 29.5411C31.3203 29.5382 31.3175 29.5354 31.3146 29.5325C31.3117 29.5297 31.3089 29.5268 31.306 29.524C31.3032 29.5211 31.3003 29.5183 31.2976 29.5155C31.2948 29.5127 31.2919 29.5098 31.2892 29.5071C31.2863 29.5043 31.2836 29.5015 31.2809 29.4988C31.278 29.4959 31.2753 29.4932 31.2725 29.4905C31.2698 29.4877 31.2671 29.485 31.2644 29.4823C31.2616 29.4795 31.2589 29.4768 31.2563 29.4742C31.2535 29.4715 31.2508 29.4687 31.2482 29.4661C31.2455 29.4634 31.2428 29.4608 31.2401 29.458C31.2375 29.4554 31.2349 29.4528 31.2323 29.4502C31.2295 29.4475 31.2269 29.4449 31.2243 29.4422C31.2217 29.4396 31.2191 29.437 31.2166 29.4345C31.214 29.4319 31.2114 29.4293 31.2088 29.4267C31.2063 29.4242 31.2036 29.4216 31.2012 29.4191C31.1985 29.4165 31.196 29.414 31.1935 29.4115C31.1909 29.4089 31.1884 29.4064 31.1859 29.4039C31.1835 29.4014 31.181 29.3989 31.1785 29.3964C31.176 29.3939 31.1735 29.3914 31.1711 29.389C31.1686 29.3865 31.1661 29.384 31.1637 29.3817C31.1612 29.3792 31.1589 29.3768 31.1564 29.3743C31.154 29.3719 31.1515 29.3694 31.1491 29.367C31.1467 29.3647 31.1444 29.3623 31.142 29.3599C31.1396 29.3575 31.1372 29.3552 31.1349 29.3528C31.1325 29.3504 31.1301 29.348 31.1279 29.3458C31.1255 29.3434 31.1231 29.341 31.1208 29.3388C31.1185 29.3364 31.1162 29.3341 31.1138 29.3318C31.1116 29.3295 31.1093 29.3272 31.1071 29.325C31.1047 29.3226 31.1024 29.3204 31.1002 29.3181C31.0979 29.3158 31.0957 29.3136 31.0934 29.3113C31.0911 29.3091 31.089 29.3069 31.0868 29.3047C31.0845 29.3024 31.0824 29.3003 31.0801 29.298C31.078 29.2959 31.0757 29.2936 31.0736 29.2915C31.0713 29.2892 31.0692 29.2871 31.067 29.285C31.0649 29.2828 31.0628 29.2807 31.0606 29.2785C31.0585 29.2764 31.0563 29.2743 31.0542 29.2721C31.0521 29.27 31.0499 29.2679 31.0478 29.2657C31.0458 29.2637 31.0436 29.2616 31.0416 29.2595C31.0395 29.2574 31.0375 29.2554 31.0353 29.2532C31.0333 29.2512 31.0313 29.2492 31.0291 29.2471C31.0271 29.245 31.0251 29.243 31.0231 29.241C31.0211 29.239 31.019 29.237 31.017 29.2349C31.015 29.2329 31.013 29.2309 31.0111 29.229C31.0091 29.227 31.007 29.225 31.0051 29.2231C31.0031 29.221 31.0011 29.219 30.9992 29.2171C30.9973 29.2152 30.9953 29.2132 30.9934 29.2113C30.9915 29.2094 30.9895 29.2074 30.9876 29.2055C30.9857 29.2036 30.9838 29.2017 30.9819 29.1998C30.98 29.1979 30.9781 29.196 30.9763 29.1942C30.9744 29.1923 30.9725 29.1904 30.9706 29.1885C30.9688 29.1867 30.9669 29.1848 30.9651 29.183C30.9632 29.1811 30.9614 29.1794 30.9595 29.1774C30.9577 29.1757 30.956 29.1739 30.9542 29.1721C30.9523 29.1702 30.9505 29.1684 30.9487 29.1666C30.9469 29.1649 30.9452 29.1631 30.9434 29.1613C30.9416 29.1595 30.9399 29.1578 30.9381 29.1561C30.9364 29.1543 30.9346 29.1525 30.9329 29.1508C30.9311 29.1491 30.9295 29.1474 30.9277 29.1456C30.926 29.1439 30.9242 29.1422 30.9226 29.1405C30.9209 29.1388 30.9191 29.1371 30.9175 29.1354C30.9158 29.1337 30.9141 29.1321 30.9125 29.1304C30.9108 29.1287 30.9092 29.1271 30.9075 29.1254C30.9058 29.1238 30.9042 29.1221 30.9026 29.1205C30.901 29.1189 30.8993 29.1172 30.8978 29.1157C30.8961 29.114 30.8945 29.1125 30.8929 29.1108C30.8913 29.1093 30.8897 29.1076 30.8881 29.1061C30.8866 29.1045 30.8849 29.1028 30.8834 29.1013C30.8818 29.0998 30.8803 29.0982 30.8787 29.0967C30.8772 29.0951 30.8757 29.0936 30.8741 29.092C30.8726 29.0905 30.871 29.0889 30.8696 29.0875C30.8681 29.086 30.8665 29.0844 30.8651 29.083C30.8635 29.0815 30.8621 29.08 30.8606 29.0785C30.8591 29.0771 30.8576 29.0755 30.8562 29.0741C30.8546 29.0726 30.8532 29.0711 30.8518 29.0697C30.8504 29.0683 30.8489 29.0669 30.8475 29.0654C30.8461 29.064 30.8447 29.0626 30.8432 29.0612C30.8418 29.0597 30.8404 29.0583 30.8389 29.0569C30.8375 29.0554 30.8361 29.054 30.8348 29.0527C30.8334 29.0513 30.8319 29.0499 30.8306 29.0486C30.8292 29.0471 30.8279 29.0458 30.8266 29.0445C30.8252 29.0431 30.8239 29.0418 30.8224 29.0404C30.8211 29.0391 30.8198 29.0377 30.8185 29.0364C30.8172 29.0351 30.8159 29.0338 30.8146 29.0325C30.8133 29.0312 30.812 29.0299 30.8107 29.0286C30.8094 29.0273 30.8081 29.026 30.8068 29.0247C30.8054 29.0234 30.8043 29.0222 30.803 29.0209C30.8016 29.0196 30.8005 29.0184 30.7992 29.0171C30.798 29.0159 30.7967 29.0146 30.7955 29.0134C30.7943 29.0122 30.793 29.0109 30.7918 29.0097C30.7906 29.0085 30.7894 29.0073 30.7881 29.006C30.7869 29.0048 30.7857 29.0037 30.7845 29.0025C30.7834 29.0013 30.7822 29.0001 30.781 28.9989C30.7798 28.9977 30.7787 28.9966 30.7775 28.9955C30.7763 28.9943 30.7752 28.9931 30.7741 28.992C30.7729 28.9908 30.7717 28.9896 30.7706 28.9886C30.7695 28.9874 30.7684 28.9863 30.7672 28.9851C30.7661 28.9841 30.7651 28.983 30.7639 28.9818C30.7628 28.9807 30.7617 28.9797 30.7607 28.9786C30.7595 28.9774 30.7584 28.9763 30.7573 28.9753C30.7563 28.9742 30.7552 28.9731 30.7541 28.9721C30.7531 28.971 30.752 28.9699 30.751 28.969C30.75 28.9679 30.7489 28.9668 30.7478 28.9658C30.7469 28.9648 30.7458 28.9637 30.7447 28.9627C30.7438 28.9617 30.7427 28.9607 30.7418 28.9597C30.7407 28.9586 30.7398 28.9577 30.7387 28.9566C30.7377 28.9557 30.7368 28.9547 30.7357 28.9536C30.7348 28.9527 30.7338 28.9517 30.7329 28.9508C30.7319 28.9498 30.7308 28.9488 30.7299 28.9478C30.7289 28.9469 30.728 28.9459 30.727 28.945C30.7261 28.944 30.7253 28.9432 30.7243 28.9422C30.7234 28.9413 30.7224 28.9403 30.7215 28.9394C30.7206 28.9386 30.7197 28.9376 30.7187 28.9367C30.7179 28.9358 30.7169 28.9349 30.7161 28.934C30.7152 28.9331 30.7143 28.9323 30.7134 28.9313C30.7126 28.9305 30.7117 28.9296 30.7108 28.9287C30.7099 28.9279 30.7091 28.927 30.7082 28.9261C30.7073 28.9253 30.7065 28.9244 30.7057 28.9236C30.7048 28.9228 30.704 28.9219 30.7032 28.9211C30.7023 28.9203 30.7015 28.9194 30.7007 28.9186C30.6998 28.9178 30.699 28.9169 30.6983 28.9162C30.6975 28.9154 30.6966 28.9146 30.6958 28.9137C30.6951 28.913 30.6943 28.9122 30.6934 28.9114C30.6927 28.9106 30.6919 28.9098 30.6912 28.9091C30.6903 28.9083 30.6896 28.9076 30.6888 28.9067C30.6881 28.906 30.6874 28.9053 30.6865 28.9045C30.6858 28.9037 30.6851 28.903 30.6844 28.9023C30.6837 28.9016 30.6829 28.9008 30.6821 28.9001C30.6814 28.8994 30.6807 28.8986 30.68 28.8979C30.6793 28.8972 30.6786 28.8965 30.6779 28.8958C30.6772 28.8951 30.6764 28.8944 30.6758 28.8938C30.6751 28.8931 30.6744 28.8923 30.6737 28.8916C30.6731 28.891 30.6724 28.8903 30.6717 28.8896C30.6711 28.889 30.6704 28.8883 30.6697 28.8876C30.6691 28.887 30.6684 28.8863 30.6678 28.8857C30.6672 28.8851 30.6665 28.8844 30.6659 28.8838C30.6652 28.8831 30.6646 28.8825 30.664 28.8819C30.6633 28.8812 30.6627 28.8806 30.6621 28.88C30.6615 28.8794 30.6609 28.8788 30.6603 28.8782C30.6597 28.8776 30.659 28.8769 30.6584 28.8763C30.6578 28.8757 30.6572 28.8751 30.6567 28.8746C30.6561 28.8741 30.6555 28.8735 30.6549 28.8729C30.6543 28.8723 30.6537 28.8717 30.6533 28.8712C30.6527 28.8706 30.6521 28.87 30.6515 28.8694C30.651 28.8689 30.6504 28.8683 30.6498 28.8678C30.6494 28.8673 30.6488 28.8667 30.6483 28.8662C30.6477 28.8656 30.6472 28.8651 30.6466 28.8645C30.6461 28.8641 30.6457 28.8636 30.6451 28.863C30.6446 28.8625 30.6441 28.8621 30.6435 28.8615C30.6431 28.861 30.6426 28.8605 30.6421 28.86C30.6416 28.8596 30.641 28.859 30.6406 28.8585C30.6401 28.858 30.6396 28.8575 30.6391 28.8571C30.6387 28.8566 30.6382 28.8561 30.6377 28.8556C30.6372 28.8552 30.6368 28.8547 30.6363 28.8542C30.6358 28.8537 30.6355 28.8534 30.635 28.8529C30.6345 28.8524 30.634 28.852 30.6337 28.8516C30.6332 28.8511 30.6327 28.8506 30.6322 28.8502C30.6319 28.8498 30.6314 28.8493 30.6311 28.849C30.6306 28.8485 30.6302 28.8482 30.6298 28.8477C30.6293 28.8472 30.6289 28.8468 30.6286 28.8465C30.6281 28.846 30.6277 28.8457 30.6273 28.8452C30.6269 28.8448 30.6265 28.8445 30.6261 28.844C30.6257 28.8436 30.6264 28.8444 30.6261 28.844C30.6256 28.8435 30.6242 28.8421 30.6238 28.8417C30.6235 28.8414 30.6242 28.8421 30.6238 28.8417C30.6235 28.8414 30.622 28.84 30.6217 28.8396C30.6213 28.8392 30.622 28.84 30.6217 28.8396C30.6213 28.8392 30.6199 28.8378 30.6195 28.8375C30.6192 28.8371 30.6199 28.8378 30.6195 28.8375C30.6192 28.8371 30.6179 28.8358 30.6175 28.8354C30.6172 28.8351 30.6178 28.8357 30.6175 28.8354C30.6172 28.8351 30.6159 28.8338 30.6156 28.8335C30.6153 28.8332 30.616 28.8339 30.6156 28.8335C30.6153 28.8332 30.6141 28.832 30.6137 28.8316C30.6135 28.8314 30.614 28.8319 30.6137 28.8316C30.6135 28.8314 30.6123 28.8302 30.6121 28.83C30.6117 28.8296 30.6123 28.8302 30.6121 28.83C30.6117 28.8296 30.6106 28.8286 30.6104 28.8283C30.6102 28.8281 30.6106 28.8286 30.6104 28.8283C30.6102 28.8281 30.6091 28.827 30.6088 28.8268C30.6085 28.8264 30.6091 28.827 30.6088 28.8268C30.6086 28.8265 30.6075 28.8255 30.6073 28.8252C30.6071 28.825 30.6075 28.8255 30.6073 28.8252C30.6071 28.825 30.6061 28.824 30.6059 28.8238C30.6056 28.8236 30.6061 28.824 30.6059 28.8238C30.6056 28.8236 30.6048 28.8227 30.6046 28.8225C30.6043 28.8223 30.6048 28.8227 30.6046 28.8225C30.6044 28.8224 30.6035 28.8214 30.6033 28.8212C30.603 28.8209 30.6017 28.8196 30.6015 28.8194C30.6014 28.8193 30.6001 28.818 30.5999 28.8179C30.5998 28.8177 30.5986 28.8166 30.5985 28.8164C30.5984 28.8163 30.5973 28.8152 30.5971 28.815C30.597 28.8149 30.5961 28.8141 30.5959 28.8138C30.5958 28.8137 30.5947 28.8126 30.5946 28.8125C30.5945 28.8124 30.5947 28.8126 30.5946 28.8125C30.5945 28.8124 30.5935 28.8114 30.5934 28.8113C30.5933 28.8112 30.5921 28.81 30.592 28.8099C30.592 28.8099 30.5909 28.8088 30.5908 28.8087C30.5907 28.8086 30.5894 28.8073 30.5894 28.8073L29.6984 29.6982ZM30.5894 28.8073L24.6497 22.8676L22.8678 24.6495L28.8075 30.5892L30.5894 28.8073Z" fill="white"/>
</svg>
