<svg width="21" height="22" viewBox="0 0 21 22" fill="none" xmlns="http://www.w3.org/2000/svg">
<path d="M3.77133 20.1113L2.0087 6.6H18.0783L16.3156 20.1113C16.2472 20.6355 16.0084 21.1152 15.6431 21.4621C15.2778 21.809 14.8105 22 14.327 22H5.75993C5.27642 22 4.80911 21.809 4.44382 21.4621C4.07852 21.1152 3.83974 20.6355 3.77133 20.1113ZM19.0826 2.2H14.0609V1.1C14.0609 0.808262 13.9551 0.528472 13.7667 0.322183C13.5784 0.115892 13.3229 0 13.0565 0H7.03043C6.76406 0 6.50861 0.115892 6.32025 0.322183C6.1319 0.528472 6.02609 0.808262 6.02609 1.1V2.2H1.00435C0.737978 2.2 0.482518 2.31589 0.294167 2.52218C0.105815 2.72847 0 3.00826 0 3.3C0 3.59174 0.105815 3.87153 0.294167 4.07782C0.482518 4.28411 0.737978 4.4 1.00435 4.4H19.0826C19.349 4.4 19.6044 4.28411 19.7928 4.07782C19.9811 3.87153 20.087 3.59174 20.087 3.3C20.087 3.00826 19.9811 2.72847 19.7928 2.52218C19.6044 2.31589 19.349 2.2 19.0826 2.2Z" fill="#FCE220"/>
</svg>
