<svg width="26" height="26" viewBox="0 0 26 26" fill="none" xmlns="http://www.w3.org/2000/svg">
<path fill-rule="evenodd" clip-rule="evenodd" d="M25.5316 12.908C25.5328 12.0481 25.4577 11.1895 25.3074 10.342H13.0242V15.2024H20.0595C19.7686 16.7709 18.8288 18.1563 17.458 19.0373V22.1922H21.6568C24.1153 19.996 25.5316 16.7483 25.5316 12.908Z" fill="#4285F4"/>
<path fill-rule="evenodd" clip-rule="evenodd" d="M13.0243 25.24C16.5392 25.24 19.4987 24.1216 21.6568 22.1938L17.4581 19.0389C16.2896 19.8065 14.7845 20.2447 13.0243 20.2447C9.62702 20.2447 6.74345 18.0258 5.71239 15.0355H1.38696V18.2868C3.59782 22.5495 8.10065 25.2396 13.0243 25.24Z" fill="#34A853"/>
<path fill-rule="evenodd" clip-rule="evenodd" d="M5.71233 15.0357C5.16712 13.4689 5.16712 11.772 5.71233 10.2052V6.95386H1.3869C-0.462301 10.5191 -0.462301 14.7218 1.3869 18.287L5.71233 15.0357Z" fill="#FBBC04"/>
<path fill-rule="evenodd" clip-rule="evenodd" d="M13.0243 4.99621C14.8817 4.96663 16.6764 5.64671 18.0208 6.88915L21.7383 3.28724C19.381 1.14211 16.258 -0.0356557 13.0243 0.00082276C8.10065 0.00101994 3.59782 2.69136 1.38696 6.95382L5.71239 10.2051C6.74345 7.21509 9.62702 4.99621 13.0243 4.99621Z" fill="#EA4335"/>
</svg>
