<svg width="26" height="26" viewBox="0 0 26 26" fill="none" xmlns="http://www.w3.org/2000/svg">
<g clip-path="url(#clip0_197_9037)">
<path d="M7.94488 11.917L7.22266 14.1559H8.6671L7.94488 11.917Z" fill="#FCE220"/>
<path d="M21.8834 2.16699H10.3278V5.7781H13.2167V7.22255H3.8278C2.60002 7.22255 1.66113 8.16144 1.66113 9.38921V17.3337C1.66113 18.5614 2.60002 19.5003 3.8278 19.5003H4.55002V23.1837L9.10002 19.5003H13.9389V14.4448H21.8834C23.1111 14.4448 24.05 13.5059 24.05 12.2781V4.33366C24.05 3.10588 23.1111 2.16699 21.8834 2.16699ZM9.46113 16.5392L9.10002 15.3837H6.86113L6.4278 16.5392H4.69447L7.0778 10.1114H8.81113L11.1945 16.5392H9.46113ZM20.4389 10.8337V12.2781C19.5 12.2781 18.4889 11.9892 17.6222 11.5559C16.7556 11.9892 15.7445 12.2059 14.7334 12.2781L14.6611 10.8337C15.1667 10.8337 15.6722 10.7614 16.1778 10.617C15.5278 9.96699 15.0945 9.17255 14.8778 8.30588H16.3945C16.6111 8.95588 17.0445 9.46144 17.55 9.89477C18.3445 9.24477 18.85 8.30588 18.9222 7.22255H14.5889V5.7781H16.7556V4.33366H18.2V5.7781H20.5834L20.6556 6.50033C20.7278 8.01699 20.15 9.53366 19.0667 10.617C19.5722 10.7614 20.0056 10.8337 20.4389 10.8337Z" fill="#FCE220"/>
</g>
<defs>
<clipPath id="clip0_197_9037">
<rect width="26" height="26" fill="white"/>
</clipPath>
</defs>
</svg>
