<svg width="22" height="22" viewBox="0 0 22 22" fill="none" xmlns="http://www.w3.org/2000/svg">
<path d="M16.8222 13.5218C16.3926 13.9514 16.3926 14.6479 16.8222 15.0774C17.2517 15.507 17.9483 15.507 18.3778 15.0774L21.5821 11.8731C21.5986 11.8566 21.6147 11.8397 21.6301 11.8224C21.857 11.6209 22 11.327 22 10.9996C22 10.6723 21.857 10.3783 21.6301 10.1768C21.6147 10.1595 21.5986 10.1426 21.5821 10.1261L18.3778 6.92179C17.9483 6.49222 17.2517 6.49222 16.8222 6.92179C16.3926 7.35137 16.3926 8.04785 16.8222 8.47743L18.2444 9.89962H12.1C11.4925 9.89962 11 10.3921 11 10.9996C11 11.6071 11.4925 12.0996 12.1 12.0996H18.2444L16.8222 13.5218Z" fill="#FCE220"/>
<path d="M3.3 0C1.47747 0 0 1.47747 0 3.3V18.7C0 20.5226 1.47747 22 3.3 22H13.75C15.2688 22 16.5 20.7688 16.5 19.25V16.2059C16.3371 16.1117 16.1838 15.995 16.0444 15.8556C15.3246 15.1358 15.2079 14.0414 15.6942 13.2H12.1C10.885 13.2 9.90001 12.2151 9.90001 11C9.90001 9.78496 10.885 8.80001 12.1 8.80001H15.6942C15.2079 7.95867 15.3246 6.86418 16.0444 6.14438C16.1838 6.00502 16.3371 5.88827 16.5 5.79413V2.75C16.5 1.23122 15.2688 0 13.75 0H3.3Z" fill="#FCE220"/>
</svg>
