<svg width="77" height="77" viewBox="0 0 77 77" fill="none" xmlns="http://www.w3.org/2000/svg">
<g filter="url(#filter0_d_172_2192)">
<g clip-path="url(#clip0_172_2192)">
<path fill-rule="evenodd" clip-rule="evenodd" d="M38.5 22.4687C35.652 22.4687 33.3438 24.777 33.3438 27.625C33.3438 30.473 35.652 32.7812 38.5 32.7812C41.348 32.7812 43.6563 30.473 43.6563 27.625C43.6563 24.777 41.348 22.4687 38.5 22.4687ZM38.5 36.2187C33.7545 36.2187 29.9063 32.3722 29.9063 27.625C29.9063 22.8778 33.7545 19.0312 38.5 19.0312C43.2455 19.0312 47.0938 22.8778 47.0938 27.625C47.0938 32.3722 43.2455 36.2187 38.5 36.2187ZM38.5 7C27.1098 7 17.875 16.2348 17.875 27.625C17.875 36.2497 35.0711 62.0189 38.5 62C41.8756 62.0189 59.125 36.1328 59.125 27.625C59.125 16.2348 49.8902 7 38.5 7Z" fill="#FCE220"/>
</g>
</g>
<defs>
<filter id="filter0_d_172_2192" x="0.1" y="0.1" width="76.8" height="76.8" filterUnits="userSpaceOnUse" color-interpolation-filters="sRGB">
<feFlood flood-opacity="0" result="BackgroundImageFix"/>
<feColorMatrix in="SourceAlpha" type="matrix" values="0 0 0 0 0 0 0 0 0 0 0 0 0 0 0 0 0 0 127 0" result="hardAlpha"/>
<feOffset dy="4"/>
<feGaussianBlur stdDeviation="5.45"/>
<feComposite in2="hardAlpha" operator="out"/>
<feColorMatrix type="matrix" values="0 0 0 0 0 0 0 0 0 0 0 0 0 0 0 0 0 0 0.25 0"/>
<feBlend mode="normal" in2="BackgroundImageFix" result="effect1_dropShadow_172_2192"/>
<feBlend mode="normal" in="SourceGraphic" in2="effect1_dropShadow_172_2192" result="shape"/>
</filter>
<clipPath id="clip0_172_2192">
<rect width="55" height="55" fill="white" transform="translate(11 7)"/>
</clipPath>
</defs>
</svg>
