<svg width="19" height="23" viewBox="0 0 19 23" fill="none" xmlns="http://www.w3.org/2000/svg">
<path d="M17.7727 8.36364H15.6818V5.75C15.6818 4.22501 15.076 2.76247 13.9977 1.68414C12.9193 0.605802 11.4568 0 9.93182 0H8.88636C7.36137 0 5.89883 0.605802 4.8205 1.68414C3.74217 2.76247 3.13636 4.22501 3.13636 5.75V8.36364H1.04545C0.768183 8.36364 0.502267 8.47378 0.306206 8.66984C0.110146 8.8659 0 9.13182 0 9.40909V21.9545C0 22.2318 0.110146 22.4977 0.306206 22.6938C0.502267 22.8899 0.768183 23 1.04545 23H17.7727C18.05 23 18.3159 22.8899 18.512 22.6938C18.708 22.4977 18.8182 22.2318 18.8182 21.9545V9.40909C18.8182 9.13182 18.708 8.8659 18.512 8.66984C18.3159 8.47378 18.05 8.36364 17.7727 8.36364ZM5.22727 5.75C5.22727 4.77955 5.61278 3.84884 6.299 3.16263C6.98521 2.47642 7.91591 2.09091 8.88636 2.09091H9.93182C10.9023 2.09091 11.833 2.47642 12.5192 3.16263C13.2054 3.84884 13.5909 4.77955 13.5909 5.75V8.36364H5.22727V5.75ZM4.70455 17.25C4.39439 17.25 4.0912 17.158 3.83331 16.9857C3.57542 16.8134 3.37443 16.5685 3.25573 16.2819C3.13704 15.9954 3.10599 15.6801 3.1665 15.3759C3.227 15.0717 3.37636 14.7923 3.59567 14.5729C3.81499 14.3536 4.09441 14.2043 4.39861 14.1438C4.70281 14.0833 5.01811 14.1143 5.30466 14.233C5.59121 14.3517 5.83613 14.5527 6.00844 14.8106C6.18076 15.0685 6.27273 15.3717 6.27273 15.6818C6.28003 15.8897 6.24446 16.0969 6.16824 16.2905C6.09201 16.484 5.97676 16.6598 5.82966 16.8069C5.68256 16.954 5.50676 17.0693 5.31319 17.1455C5.11963 17.2217 4.91245 17.2573 4.70455 17.25ZM9.40909 17.25C9.09893 17.25 8.79574 17.158 8.53786 16.9857C8.27997 16.8134 8.07897 16.5685 7.96028 16.2819C7.84159 15.9954 7.81053 15.6801 7.87104 15.3759C7.93155 15.0717 8.0809 14.7923 8.30022 14.5729C8.51953 14.3536 8.79896 14.2043 9.10315 14.1438C9.40735 14.0833 9.72266 14.1143 10.0092 14.233C10.2958 14.3517 10.5407 14.5527 10.713 14.8106C10.8853 15.0685 10.9773 15.3717 10.9773 15.6818C10.9846 15.8897 10.949 16.0969 10.8728 16.2905C10.7966 16.484 10.6813 16.6598 10.5342 16.8069C10.3871 16.954 10.2113 17.0693 10.0177 17.1455C9.82418 17.2217 9.61699 17.2573 9.40909 17.25ZM14.1136 17.25C13.8035 17.25 13.5003 17.158 13.2424 16.9857C12.9845 16.8134 12.7835 16.5685 12.6648 16.2819C12.5461 15.9954 12.5151 15.6801 12.5756 15.3759C12.6361 15.0717 12.7854 14.7923 13.0048 14.5729C13.2241 14.3536 13.5035 14.2043 13.8077 14.1438C14.1119 14.0833 14.4272 14.1143 14.7138 14.233C15.0003 14.3517 15.2452 14.5527 15.4175 14.8106C15.5898 15.0685 15.6818 15.3717 15.6818 15.6818C15.6891 15.8897 15.6536 16.0969 15.5773 16.2905C15.5011 16.484 15.3859 16.6598 15.2388 16.8069C15.0917 16.954 14.9158 17.0693 14.7223 17.1455C14.5287 17.2217 14.3215 17.2573 14.1136 17.25Z" fill="#FCE220"/>
</svg>
