<svg width="24" height="27" viewBox="0 0 24 27" fill="none" xmlns="http://www.w3.org/2000/svg">
<path d="M22.965 22.9411C22.965 22.9411 19.9682 17.7907 19.4307 16.8669C20.0423 16.6804 20.6938 16.5156 20.9645 16.0482C21.4156 15.2694 20.6126 13.9917 20.8234 13.1569C21.0406 12.2978 22.3229 11.5543 22.3229 10.681C22.3229 9.83016 20.9972 8.83616 20.7799 7.98203C20.5675 7.14738 21.3682 5.86837 20.9156 5.09049C20.463 4.31253 18.9554 4.37645 18.3349 3.7793C17.6964 3.16479 17.6983 1.66127 16.9282 1.24946C16.1549 0.836108 14.8981 1.67149 14.0396 1.4736C13.1908 1.27799 12.4324 0 11.5458 0C10.6461 0 9.21503 1.44967 8.99059 1.50184C8.13244 1.70133 6.87409 0.867994 6.1016 1.28309C5.33218 1.69629 5.33693 3.19996 4.69958 3.8155C4.08003 4.41374 2.57242 4.35259 2.1212 5.13142C1.67006 5.91011 2.47312 7.18744 2.26232 8.02267C2.05094 8.86002 0.723994 9.70846 0.723994 10.6769C0.723994 11.5502 2.0095 12.2914 2.22803 13.1501C2.44043 13.9847 1.63978 15.2636 2.09238 16.0418C2.33879 16.4653 2.89785 16.6392 3.45618 16.8064C3.52133 16.8258 3.64457 16.8987 3.5611 17.0204C3.17913 17.6797 0.104738 22.9856 0.104738 22.9856C-0.139841 23.4077 0.0587703 23.7694 0.545959 23.7899L2.93068 23.8894C3.41787 23.9099 4.02903 24.2639 4.28907 24.6764L5.56159 26.6956C5.82164 27.1081 6.23425 27.1004 6.47876 26.6784C6.47876 26.6784 10.0392 20.5314 10.0407 20.5296C10.1121 20.4462 10.1839 20.4633 10.2183 20.4925C10.6079 20.8242 11.1509 21.1551 11.6042 21.1551C12.0487 21.1551 12.4603 20.8436 12.8674 20.4962C12.9006 20.468 12.9812 20.4101 13.0402 20.5302C13.0411 20.5321 16.5976 26.6455 16.5976 26.6455C16.8428 27.0669 17.2555 27.0741 17.5147 26.6611L18.7837 24.6395C19.043 24.2267 19.6535 23.8713 20.1407 23.8501L22.5252 23.7462C23.0122 23.7248 23.2101 23.3625 22.965 22.9411ZM15.4869 17.4118C12.8502 18.9457 9.68536 18.7813 7.26802 17.2566C3.72593 14.9877 2.56046 10.2943 4.6898 6.61911C6.84344 2.90153 11.5776 1.58977 15.3287 3.63272C15.3484 3.64344 15.3679 3.65453 15.3874 3.66548C15.4152 3.68087 15.443 3.69649 15.4706 3.71225C16.6279 4.37944 17.6313 5.34776 18.3499 6.58285C20.546 10.3578 19.2618 15.2156 15.4869 17.4118Z" fill="#FCE220"/>
<path d="M14.8841 4.82458C14.8732 4.81823 14.8621 4.81232 14.8511 4.80605C12.8474 3.64634 10.2934 3.56155 8.15299 4.80685C4.97667 6.65477 3.89584 10.7422 5.74376 13.9185C6.30763 14.8877 7.08033 15.6614 7.97182 16.2167C8.04763 16.2647 8.12432 16.3119 8.20268 16.3573C11.3824 18.1995 15.4677 17.1113 17.3098 13.9317C19.1518 10.7519 18.0639 6.66673 14.8841 4.82458ZM15.6796 10.0227L14.5662 11.1079C14.2214 11.444 14.0058 12.1074 14.0873 12.582L14.3501 14.1144C14.4316 14.589 14.1495 14.794 13.7232 14.5699L12.347 13.8464C11.9208 13.6223 11.2233 13.6223 10.797 13.8464L9.42091 14.5699C8.99465 14.794 8.71249 14.589 8.79392 14.1144L9.05674 12.582C9.13817 12.1074 8.92263 11.444 8.5778 11.1079L7.46449 10.0227C7.11959 9.68662 7.22743 9.35492 7.70397 9.2856L9.24251 9.06203C9.71904 8.99279 10.2834 8.5828 10.4965 8.15099L11.1846 6.75684C11.3977 6.32504 11.7465 6.32504 11.9595 6.75684L12.6476 8.15099C12.8608 8.5828 13.425 8.99279 13.9016 9.06203L15.4402 9.2856C15.9166 9.35492 16.0244 9.68662 15.6796 10.0227Z" fill="#FCE220"/>
</svg>
