<svg width="28" height="28" viewBox="0 0 28 28" fill="none" xmlns="http://www.w3.org/2000/svg">
<path d="M10.6787 6.31043C12.1565 3.65947 12.8953 2.33398 14 2.33398C15.1048 2.33398 15.8436 3.65946 17.3213 6.31042L17.7036 6.99625C18.1236 7.74957 18.3335 8.12624 18.661 8.37476C18.9884 8.62329 19.396 8.71553 20.2115 8.90004L20.954 9.06802C23.8235 9.7173 25.2584 10.0419 25.5997 11.1397C25.9411 12.2374 24.963 13.3813 23.0066 15.6689L22.5005 16.2607C21.9446 16.9108 21.6666 17.2358 21.5415 17.638C21.4165 18.0401 21.4585 18.4738 21.5425 19.3412L21.6191 20.1308C21.9148 23.183 22.0628 24.7091 21.1691 25.3876C20.2753 26.066 18.9319 25.4474 16.2451 24.2104L15.55 23.8903C14.7865 23.5387 14.4048 23.3629 14 23.3629C13.5953 23.3629 13.2136 23.5387 12.4501 23.8903L11.755 24.2104C9.06817 25.4474 7.72475 26.066 6.83105 25.3876C5.93735 24.7091 6.08524 23.183 6.38101 20.1308L6.45752 19.3412C6.54158 18.4738 6.5836 18.0401 6.45855 17.638C6.3335 17.2358 6.05554 16.9108 5.49962 16.2607L4.99349 15.6689C3.03717 13.3813 2.059 12.2374 2.40037 11.1397C2.74173 10.0419 4.17655 9.7173 7.04617 9.06802L7.78858 8.90004C8.60403 8.71553 9.01176 8.62329 9.33914 8.37476C9.66652 8.12624 9.87649 7.74958 10.2964 6.99625L10.6787 6.31043Z" fill="#FCE220"/>
</svg>
