<svg width="29" height="25" viewBox="0 0 29 25" fill="none" xmlns="http://www.w3.org/2000/svg">
<path d="M8.64335 4.1185C10.1739 1.37287 10.9391 4.57764e-05 12.0833 4.57764e-05C13.2275 4.57764e-05 13.9927 1.37286 15.5232 4.11849L15.9191 4.82882C16.3541 5.60904 16.5715 5.99917 16.9107 6.25657C17.2498 6.51397 17.6719 6.60951 18.5166 6.80061L19.2856 6.97458C22.2576 7.64706 22.1464 7.36311 22.5 8.50005C21.5 9.50005 21 10 18.5 12.5L17.0693 13.877C16.6387 14.2539 16.6807 14.2656 16.5693 14.377C16.0693 14.877 16.0693 14.877 15.5693 15.377L14.5693 16.377C13.5693 17.377 14.0693 16.877 13.0693 17.877C12.1436 18.5796 12.0693 18.877 11.5693 19.377V20.377C11.5693 20.877 11.5693 20.877 11.5693 21.377C11.0693 21.877 11.2687 21.9621 10.478 22.3262L9.75809 22.6577C6.97527 23.9389 5.58388 24.5796 4.65826 23.877C3.73264 23.1743 3.88581 21.5937 4.19214 18.4324L4.27139 17.6146C4.35845 16.7162 4.40197 16.2671 4.27245 15.8506C4.14294 15.4341 3.85506 15.0974 3.27927 14.4242L2.75507 13.8112C0.72888 11.4419 -0.284222 10.2571 0.0693359 9.12022C0.422894 7.98329 1.90895 7.64706 4.88106 6.97458L5.64999 6.80061C6.49456 6.60951 6.91685 6.51397 7.25592 6.25657C7.59499 5.99917 7.81247 5.60906 8.2474 4.82882L8.64335 4.1185Z" fill="#FCE220"/>
<path fill-rule="evenodd" clip-rule="evenodd" d="M20.4023 22.7103C20.4023 22.25 20.7754 21.877 21.2357 21.877H27.9023C28.3626 21.877 28.7357 22.25 28.7357 22.7103C28.7357 23.1705 28.3626 23.5436 27.9023 23.5436H21.2357C20.7754 23.5436 20.4023 23.1705 20.4023 22.7103Z" fill="#FCE220"/>
<path fill-rule="evenodd" clip-rule="evenodd" d="M27.714 11.9602C29.0555 10.6135 28.9985 8.84488 27.9968 7.76181C27.5083 7.2337 26.8132 6.89637 26.0258 6.87777C25.2354 6.8591 24.4166 7.16134 23.661 7.79349C23.6417 7.80966 23.6231 7.82669 23.6053 7.84454L12.7981 18.695C12.3314 19.1635 12.0693 19.7979 12.0693 20.4592V21.8705C12.0693 22.7884 12.8126 23.5436 13.7392 23.5436H15.1382C15.803 23.5436 16.4404 23.2789 16.9095 22.8079L27.714 11.9602ZM24.7419 10.0377C24.4165 9.71231 23.8888 9.71231 23.5634 10.0377C23.238 10.3632 23.238 10.8908 23.5634 11.2163L24.3968 12.0496C24.7222 12.375 25.2498 12.375 25.5753 12.0496C25.9007 11.7242 25.9007 11.1965 25.5753 10.8711L24.7419 10.0377Z" fill="#FCE220"/>
</svg>
