<svg width="21" height="21" viewBox="0 0 21 21" fill="none" xmlns="http://www.w3.org/2000/svg">
<path fill-rule="evenodd" clip-rule="evenodd" d="M10.5 19.9494C10.5 19.3695 10.9701 18.8994 11.55 18.8994H19.95C20.5299 18.8994 21 19.3695 21 19.9494C21 20.5293 20.5299 20.9994 19.95 20.9994H11.55C10.9701 20.9994 10.5 20.5293 10.5 19.9494Z" fill="#FCE220"/>
<path fill-rule="evenodd" clip-rule="evenodd" d="M19.7123 6.40493C21.4026 4.708 21.3307 2.47959 20.0686 1.11492C19.4531 0.449502 18.5772 0.0244618 17.5851 0.00102581C16.5893 -0.0224942 15.5575 0.35833 14.6055 1.15484C14.5811 1.17521 14.5577 1.19667 14.5354 1.21916L0.918183 14.8907C0.330151 15.481 0 16.2803 0 17.1136V18.8918C0 20.0484 0.936568 21 2.10402 21H3.86678C4.70439 21 5.5075 20.6664 6.0986 20.073L19.7123 6.40493ZM15.9675 3.98259C15.5574 3.57255 14.8926 3.57255 14.4825 3.98259C14.0725 4.39265 14.0725 5.05747 14.4825 5.46753L15.5325 6.51752C15.9426 6.92757 16.6074 6.92757 17.0175 6.51752C17.4275 6.10747 17.4275 5.44265 17.0175 5.03259L15.9675 3.98259Z" fill="#FCE220"/>
</svg>
