<svg width="29" height="29" viewBox="0 0 29 29" fill="none" xmlns="http://www.w3.org/2000/svg">
<path fill-rule="evenodd" clip-rule="evenodd" d="M25.4968 9.67224C25.4283 9.66792 25.3537 9.66795 25.2765 9.66797L25.2572 9.66798H22.2261C19.7276 9.66798 17.5898 11.6346 17.5898 14.1992C17.5898 16.7638 19.7276 18.7305 22.2261 18.7305H25.2572H25.2765C25.3537 18.7305 25.4283 18.7306 25.4968 18.7262C26.5117 18.6621 27.4091 17.868 27.4846 16.7587C27.4896 16.686 27.4895 16.6076 27.4895 16.5349V16.5152V11.8833V11.8635C27.4895 11.7909 27.4896 11.7125 27.4846 11.6397C27.4091 10.5305 26.5117 9.73633 25.4968 9.67224ZM21.9574 15.4076C22.6006 15.4076 23.122 14.8666 23.122 14.1992C23.122 13.5319 22.6006 12.9909 21.9574 12.9909C21.3142 12.9909 20.7927 13.5319 20.7927 14.1992C20.7927 14.8666 21.3142 15.4076 21.9574 15.4076Z" fill="#FCE220"/>
<path fill-rule="evenodd" clip-rule="evenodd" d="M25.2761 20.5417C25.4563 20.537 25.5927 20.7038 25.5438 20.8773C25.3013 21.7382 24.9162 22.472 24.2985 23.0898C23.3941 23.994 22.2474 24.3953 20.8308 24.5858C19.4543 24.7708 17.6954 24.7708 15.4747 24.7708H12.9218C10.7011 24.7708 8.94222 24.7708 7.56568 24.5858C6.149 24.3953 5.00235 23.994 4.09807 23.0898C3.19381 22.1855 2.79249 21.0388 2.60204 19.6221C2.41696 18.2456 2.41697 16.4867 2.41699 14.2661V14.1298C2.41697 11.9091 2.41696 10.1502 2.60204 8.77368C2.79249 7.35701 3.19381 6.21036 4.09807 5.30608C5.00235 4.40181 6.149 4.0005 7.56568 3.81004C8.94222 3.62496 10.7011 3.62498 12.9218 3.625H15.4747C17.6954 3.62498 19.4543 3.62496 20.8308 3.81004C22.2474 4.0005 23.3941 4.40181 24.2985 5.30608C24.9162 5.92388 25.3011 6.6576 25.5438 7.51847C25.5927 7.69195 25.4563 7.85884 25.2761 7.85417L22.2264 7.85418C18.7988 7.85418 15.7777 10.5619 15.7777 14.1979C15.7777 17.8339 18.7988 20.5417 22.2264 20.5417H25.2761ZM6.94824 8.45833C6.44774 8.45833 6.04199 8.86408 6.04199 9.36458C6.04199 9.86509 6.44774 10.2708 6.94824 10.2708H11.7816C12.2821 10.2708 12.6878 9.86509 12.6878 9.36458C12.6878 8.86408 12.2821 8.45833 11.7816 8.45833H6.94824Z" fill="#FCE220"/>
</svg>
